<?xml version="1.0" encoding="UTF-8" standalone="no"?>
<!-- Generator: Adobe Illustrator 19.2.1, SVG Export Plug-In . SVG Version: 6.00 Build 0)  -->

<svg
   version="1.1"
   id="Layer_1"
   x="0px"
   y="0px"
   viewBox="0 0 1500 500"
   style="enable-background:new 0 0 1500 500;"
   xml:space="preserve"
   sodipodi:docname="R-LadiesGlobal_RBG_online_LogoWithText_Horizontal.svg"
   inkscape:version="1.4 (e7c3feb1, 2024-10-09)"
   xmlns:inkscape="http://www.inkscape.org/namespaces/inkscape"
   xmlns:sodipodi="http://sodipodi.sourceforge.net/DTD/sodipodi-0.dtd"
   xmlns="http://www.w3.org/2000/svg"
   xmlns:svg="http://www.w3.org/2000/svg"><defs
   id="defs9" /><sodipodi:namedview
   id="namedview9"
   pagecolor="#505050"
   bordercolor="#eeeeee"
   borderopacity="1"
   inkscape:showpageshadow="0"
   inkscape:pageopacity="0"
   inkscape:pagecheckerboard="0"
   inkscape:deskcolor="#505050"
   inkscape:zoom="0.22959182"
   inkscape:cx="263.51113"
   inkscape:cy="152.44445"
   inkscape:window-width="1000"
   inkscape:window-height="811"
   inkscape:window-x="344"
   inkscape:window-y="39"
   inkscape:window-maximized="0"
   inkscape:current-layer="Layer_1" />
<style
   type="text/css"
   id="style1">
	.st0{fill:url(#SVGID_1_);}
	.st1{fill:url(#SVGID_2_);}
	.st2{fill:none;}
	.st3{fill:#A7A8AB;}
	.st4{font-family:'OpenSans';}
	.st5{font-size:300px;}
</style>
<linearGradient
   id="SVGID_1_"
   gradientUnits="userSpaceOnUse"
   x1="110.8843"
   y1="650.5911"
   x2="111.5697"
   y2="649.9056"
   gradientTransform="matrix(721.094 0 0 -482.937 -79929.5313 314246)">
	<stop
   offset="0"
   style="stop-color:#C9CCCE"
   id="stop1" />
	<stop
   offset="1"
   style="stop-color:#82828A"
   id="stop2" />
</linearGradient>
<path
   class="st0"
   d="M275.6,383.8c-135.4,0-245.2-74.7-245.2-166.8c0-92.1,109.8-166.8,245.2-166.8c135.4,0,245.2,74.7,245.2,166.8  C520.8,309.1,411,383.8,275.6,383.8z M313.1,115.4c-102.9,0-186.4,51-186.4,114s83.5,114,186.4,114c102.9,0,178.9-34.9,178.9-114  C492.1,150.3,416.1,115.4,313.1,115.4z"
   id="path2" />
<linearGradient
   id="SVGID_2_"
   gradientUnits="userSpaceOnUse"
   x1="221.8509"
   y1="300.2784"
   x2="492.1778"
   y2="300.2784">
	<stop
   offset="0"
   style="stop-color:#883A8A"
   id="stop3" />
	<stop
   offset="0.1652"
   style="stop-color:#843886"
   id="stop4" />
	<stop
   offset="0.3365"
   style="stop-color:#783379"
   id="stop5" />
	<stop
   offset="0.5105"
   style="stop-color:#632A65"
   id="stop6" />
	<stop
   offset="0.6864"
   style="stop-color:#471E48"
   id="stop7" />
	<stop
   offset="0.8621"
   style="stop-color:#220F23"
   id="stop8" />
	<stop
   offset="1"
   style="stop-color:#000000"
   id="stop9" />
</linearGradient>
<path
   class="st1"
   d="M428.3,332.3c-3.7-4-8.9-7.1-11.9-8.6c-8.6-4.4-23.4-9-23.4-9s73-5.5,73-79.3c0-73.8-76.4-75.2-76.4-75.2H221.9  v280.1l83.5,0l0-109.6c0,0,19.2,0,22.4,0c4.6,0,6.6,1.4,11.2,5.2c5.6,4.6,14.6,20.3,14.6,20.3l44.1,84.2l94.4,0l-58.4-100  C433.8,340.3,432,336.3,428.3,332.3z M356.7,268.6l-50.6,0l0-47.6l50.6,0c0,0,23.4-1.3,23.4,23.3  C380.1,268.5,356.7,268.6,356.7,268.6z"
   id="path9" />
<rect
   x="466.6"
   y="210.7"
   class="st2"
   width="1012.3"
   height="264.6"
   id="rect9" />
<path
   d="M 12.011719,-69.726562 V -91.40625 h 72.65625 v 21.679688 z M 125.83008,0 v -214.16016 h 24.90234 v 191.894535 h 95.06836 V 0 Z m 212.98828,-163.18359 q 28.71094,0 42.62695,12.89062 13.91602,12.89063 13.91602,41.16211 V 0 h -17.72461 l -4.6875,-23.730469 h -1.17188 q -6.73828,8.789063 -14.0625,14.7949221 Q 350.39062,-3.0761719 340.72266,0 q -9.52149,2.9296875 -23.4375,2.9296875 -14.64844,0 -26.07422,-5.1269531 -11.2793,-5.1269531 -17.8711,-15.5273434 -6.44531,-10.400391 -6.44531,-26.367188 0,-24.023437 19.04297,-36.914062 19.04297,-12.890625 58.00781,-14.0625 l 27.68555,-1.171875 v -9.814456 q 0,-20.80078 -8.93555,-29.15039 -8.93554,-8.34961 -25.19531,-8.34961 -12.59766,0 -24.02344,3.66211 -11.42578,3.66211 -21.67969,8.64258 l -7.4707,-18.45703 q 10.83985,-5.56641 24.90235,-9.52149 14.0625,-3.95507 29.58984,-3.95507 z m 32.51953,84.082028 -24.46289,1.02539 q -30.0293,1.171875 -42.33398,9.814453 -12.30469,8.642578 -12.30469,24.462891 0,13.769531 8.34961,20.361328 8.34961,6.591797 22.11914,6.591797 21.38672,0 35.00976,-11.865234 13.62305,-11.865235 13.62305,-35.595704 z m 131.25,82.0312495 q -30.46875,0 -48.33984,-20.8007815 -17.72461,-20.800781 -17.72461,-61.816406 0,-41.45508 18.16406,-62.54883 18.16406,-21.24023 48.33984,-21.24023 12.74414,0 22.26563,3.36914 9.52148,3.36914 16.40625,9.08203 6.88476,5.56641 11.57226,12.74414 h 1.75782 q -0.58594,-4.54102 -1.17188,-12.45117 -0.58594,-7.91016 -0.58594,-12.89063 v -64.30664 h 24.31641 V 0 h -19.62891 l -3.66211,-22.851562 h -1.02539 q -4.54101,7.177734 -11.57226,13.0371089 -6.88477,5.859375 -16.55274,9.37499997 Q 515.625,2.9296875 502.58789,2.9296875 Z m 3.80859,-20.2148435 q 25.78125,0 36.47461,-14.648438 10.69336,-14.648437 10.69336,-43.505859 v -4.394531 q 0,-30.615236 -10.2539,-47.021486 -10.10743,-16.40625 -36.91407,-16.40625 -22.41211,0 -33.54492,17.28516 -11.13281,17.13867 -11.13281,46.874998 0,29.589843 10.98633,45.703125 11.13281,16.113281 33.6914,16.113281 z M 653.32031,-160.54687 V 0 h -24.3164 v -160.54687 z m -11.86523,-60.0586 q 6.00586,0 10.2539,3.95508 4.39454,3.80859 4.39454,12.01172 0,8.05664 -4.39454,12.01172 -4.24804,3.95508 -10.2539,3.95508 -6.29883,0 -10.54688,-3.95508 -4.10156,-3.95508 -4.10156,-12.01172 0,-8.20313 4.10156,-12.01172 4.24805,-3.95508 10.54688,-3.95508 z m 125.09765,57.12891 q 20.50782,0 35.15625,9.08203 14.64844,9.08203 22.41211,25.48828 7.76368,16.25977 7.76368,38.085938 v 15.08789 H 720.99609 q 0.43946,28.271485 14.0625,43.066406 13.62305,14.794922 38.37891,14.794922 15.23437,0 26.95312,-2.783203 11.71875,-2.783203 24.31641,-8.203125 v 21.3867189 q -12.1582,5.4199218 -24.16992,7.91015623 -11.86524,2.49023437 -28.125,2.49023437 -23.14453,0 -40.42969,-9.375 -17.13867,-9.5214845 -26.66015,-27.8320315 -9.52149,-18.310547 -9.52149,-44.824218 0,-25.927738 8.64258,-44.824218 8.78906,-19.04297 24.60937,-29.29688 15.9668,-10.2539 37.5,-10.2539 z m -0.29296,19.92187 q -19.48243,0 -31.05469,12.74414 -11.57227,12.74414 -13.76953,35.595706 h 84.96093 q -0.14648,-14.355466 -4.54101,-25.195316 -4.24805,-10.98632 -13.03711,-16.99218 -8.78906,-6.15235 -22.55859,-6.15235 z m 210.79101,99.609378 q 0,15.380859 -7.76367,25.927734 -7.61719,10.4003905 -21.97266,15.673828 -14.20898,5.2734375 -33.98437,5.2734375 -16.84571,0 -29.15039,-2.63671875 Q 871.875,-2.34375 862.64648,-7.1777344 V -29.589844 q 9.81446,4.833985 23.4375,8.789063 13.62305,3.955078 27.83204,3.955078 20.80078,0 30.17578,-6.738281 9.375,-6.738282 9.375,-18.310547 0,-6.591797 -3.8086,-11.572266 -3.66211,-5.126953 -12.45117,-9.814453 -8.78906,-4.833984 -24.31641,-10.546875 -15.38085,-5.859375 -26.66015,-11.572266 -11.13281,-5.859375 -17.28516,-14.208984 -6.00586,-8.349605 -6.00586,-21.679685 0,-20.36133 16.40625,-31.20117 16.55274,-10.98633 43.35938,-10.98633 14.50195,0 27.09961,2.92969 12.74414,2.7832 23.73047,7.61718 l -8.20313,19.48242 q -9.96094,-4.24804 -21.24023,-7.17773 -11.2793,-2.92969 -22.99805,-2.92969 -16.8457,0 -25.92773,5.56641 -8.93555,5.56641 -8.93555,15.23437 0,7.47071 4.10156,12.30469 4.24805,4.83399 13.47656,9.08203 9.22852,4.248049 24.31641,9.96094 15.08789,5.566406 26.07422,11.572266 10.98633,5.859375 16.8457,14.355468 6.00586,8.34961 6.00586,21.533204 z"
   id="text9"
   class="st3 st4 st5"
   style="font-size:300px;font-family:OpenSans;fill:#a7a8ab"
   transform="matrix(1 0 0 1 466.6124 438.6644)"
   aria-label="-Ladies" />
</svg>
